<svg width="96" height="32" viewBox="0 0 96 32" fill="none" xmlns="http://www.w3.org/2000/svg">
<path d="M12.8508 17.6857H1.58546C1.43459 17.6857 1.28372 17.692 1.13285 17.6857C0.456494 17.6459 0.0997773 17.0719 0.377223 16.4668C0.443316 16.335 0.516289 16.2066 0.595856 16.0821C2.12415 13.5346 3.65245 10.9846 5.18074 8.43214C5.2447 8.31788 5.31469 8.20692 5.39043 8.0997C5.64614 7.76975 6.0297 7.76601 6.26112 8.0997C6.38898 8.28646 6.50021 8.49315 6.61528 8.69112C7.01163 9.37219 7.40159 10.0607 7.80561 10.7331C8.14826 11.3096 8.53183 11.2996 8.86937 10.7082C9.94676 8.82642 11.0182 6.943 12.0836 5.05791C12.2115 4.84375 12.3176 4.62461 12.4544 4.41917C12.7101 4.0307 13.1269 4.02697 13.3775 4.42664C13.7611 5.04048 14.1165 5.67175 14.4822 6.2943C15.3056 7.69628 16.1286 9.09786 16.9511 10.499C16.992 10.57 17.0304 10.6434 17.079 10.7119C17.3679 11.1415 17.7502 11.1415 18.011 10.6883C18.4125 9.97358 18.7961 9.24768 19.1962 8.52552C19.3241 8.28646 19.4123 7.99511 19.7716 7.98017C20.1552 7.96274 20.2664 8.26281 20.4198 8.50934C22.0103 11.0825 23.6017 13.652 25.1939 16.2178C25.3218 16.4145 25.4407 16.6075 25.4394 16.8465C25.4384 17.052 25.3595 17.2498 25.2179 17.4022C25.0764 17.5545 24.8821 17.6506 24.6723 17.6721C24.5061 17.6882 24.3373 17.6808 24.1698 17.6808L12.8508 17.6857Z" fill="#3067B0"/>
<path d="M12.0721 25.3019C12.0721 26.8674 12.0721 28.433 12.0721 29.9985C12.0721 30.2637 12.0529 30.5227 11.8918 30.7455C11.8066 30.8776 11.6886 30.9868 11.5488 31.0629C11.4089 31.1391 11.2517 31.1798 11.0914 31.1813C10.4036 31.1813 9.717 31.1938 9.03042 31.1813C8.44228 31.1676 8.06 30.7978 8.04593 30.2201C8.02931 29.473 8.04593 28.7197 8.04593 27.9689C8.04593 27.8556 8.0357 27.7398 8.04593 27.6278C8.07022 27.3788 7.96027 27.2817 7.69944 27.2854C6.99496 27.2966 6.29304 27.2854 5.58728 27.2854C5.40316 27.2854 5.21905 27.2916 5.03494 27.2854C4.41868 27.2505 4.0415 26.8832 4.03256 26.2893C4.02105 25.4576 4.03256 24.6258 4.03256 23.7991C4.03256 23.3982 4.02616 23.3932 3.61319 23.3907C2.79236 23.3907 1.97153 23.3907 1.1507 23.3907C0.383566 23.3832 0.0204568 23.0234 0.011507 22.2701C0.00383566 21.7057 0 21.1458 0 20.5905C0.00767132 19.8297 0.391237 19.4574 1.18522 19.4562C4.4191 19.4562 7.65342 19.4562 10.8882 19.4562C11.6553 19.4562 12.0631 19.8496 12.0657 20.6067C12.0759 22.1717 12.0721 23.7368 12.0721 25.3019Z" fill="#3067B0"/>
<path d="M13.7575 25.3124C13.7575 23.7635 13.7575 22.2146 13.7575 20.6657C13.7575 19.7941 14.1027 19.4554 15.0066 19.4542C18.1902 19.4542 21.3742 19.4542 24.5587 19.4542C24.8847 19.4542 25.198 19.4828 25.4537 19.7032C25.5628 19.793 25.65 19.9052 25.7091 20.0318C25.7681 20.1585 25.7975 20.2963 25.7951 20.4353C25.7951 21.0878 25.804 21.7402 25.7951 22.3914C25.7823 22.9878 25.4 23.3588 24.7722 23.37C23.9348 23.385 23.0973 23.37 22.2599 23.3763C21.783 23.3763 21.7804 23.3763 21.7778 23.8258C21.7778 24.6089 21.7778 25.3908 21.7778 26.174C21.7778 26.9211 21.4147 27.2747 20.6348 27.2834C19.8549 27.2921 19.0596 27.2834 18.2721 27.2834C17.7696 27.2834 17.767 27.2834 17.7606 27.7578C17.7606 28.5248 17.7299 29.2918 17.7683 30.0562C17.7844 30.2106 17.7646 30.3665 17.7105 30.5124C17.6564 30.6583 17.5692 30.7905 17.4556 30.8991C17.3419 31.0078 17.2045 31.0902 17.0537 31.1402C16.9029 31.1902 16.7425 31.2066 16.5844 31.188C16.0167 31.147 15.4452 31.188 14.8749 31.1781C14.1244 31.1719 13.7613 30.8282 13.7588 30.1011C13.7536 28.5073 13.7575 26.9099 13.7575 25.3124Z" fill="#3067B0"/>
<path d="M47.7322 10.6616C47.7322 11.9167 47.7322 13.1722 47.7322 14.4281C47.7322 15.0419 47.6312 15.1365 47.0034 15.1403C46.584 15.1403 46.1634 15.1191 45.7466 15.1403C45.262 15.1714 44.9628 14.9597 44.7327 14.5675C44.1689 13.6038 43.582 12.6501 43.0118 11.6938C42.9018 11.5112 42.7906 11.329 42.6781 11.1472C42.6468 11.0885 42.5946 11.0429 42.5314 11.0188C42.4681 10.9948 42.398 10.9939 42.3341 11.0165C42.2768 11.0319 42.2268 11.0664 42.1927 11.1139C42.1586 11.1614 42.1426 11.219 42.1475 11.2767C42.1475 11.39 42.1398 11.5046 42.1398 11.6191C42.1398 12.548 42.1398 13.478 42.1398 14.4069C42.1398 15.0294 42.0196 15.1378 41.3727 15.1403C40.9546 15.1403 40.5352 15.1403 40.1158 15.1403C39.6377 15.1328 39.4766 14.9859 39.4766 14.5277C39.4676 13.8914 39.4766 13.2552 39.4766 12.6202V6.99231C39.4766 6.87776 39.4702 6.76321 39.4766 6.6499C39.5034 6.3075 39.6607 6.13194 40.0059 6.12447C40.6592 6.10953 41.3139 6.11575 41.9672 6.12447C42.3508 6.12447 42.5707 6.36477 42.7458 6.66235C43.2479 7.50902 43.7525 8.35486 44.2596 9.19987C44.3602 9.36589 44.4634 9.5319 44.569 9.69791C44.5947 9.74981 44.638 9.79145 44.6916 9.81574C44.7452 9.84003 44.8058 9.84547 44.8631 9.83114C44.9217 9.82088 44.9749 9.79171 45.0144 9.74834C45.0538 9.70496 45.0771 9.64992 45.0805 9.59208C45.092 9.47878 45.092 9.36423 45.092 9.25092C45.092 8.43538 45.092 7.61984 45.092 6.80429C45.092 6.24898 45.2313 6.12073 45.8105 6.11575C46.212 6.11575 46.6147 6.11575 47.0175 6.11575C47.6312 6.11575 47.7347 6.22283 47.736 6.84165C47.7352 8.11663 47.7339 9.38996 47.7322 10.6616Z" fill="#3067B0"/>
<path d="M84.4217 10.6666C84.4217 11.9217 84.4217 13.1776 84.4217 14.4343C84.4217 15.0407 84.3194 15.1353 83.684 15.139C83.2646 15.139 82.8439 15.1178 82.4271 15.139C81.9426 15.1701 81.6421 14.956 81.4132 14.565C80.8059 13.5316 80.1846 12.5056 79.567 11.4772C79.4987 11.3458 79.4183 11.2208 79.3267 11.1036C79.2955 11.0591 79.2512 11.0247 79.1995 11.0052C79.1479 10.9857 79.0914 10.9819 79.0375 10.9943C78.9836 11.0067 78.9349 11.0347 78.8977 11.0747C78.8605 11.1147 78.8366 11.1647 78.8293 11.2182C78.804 11.3461 78.7954 11.4766 78.8037 11.6067C78.8037 12.5691 78.8037 13.5316 78.8037 14.4941C78.8037 15.0108 78.6759 15.1241 78.1517 15.1303C77.7157 15.1303 77.2797 15.1303 76.8437 15.1303C76.2875 15.1303 76.1648 15.0058 76.1635 14.4654C76.1635 12.5255 76.1635 10.5848 76.1635 8.64331C76.1635 8.00707 76.1635 7.37082 76.1635 6.73457C76.1635 6.26641 76.3169 6.11949 76.7938 6.11202C77.3628 6.10455 77.933 6.12073 78.5033 6.11202C78.6875 6.10246 78.8706 6.14588 79.0298 6.23687C79.1889 6.32786 79.317 6.4624 79.3982 6.62376C79.9583 7.57003 80.5272 8.51133 81.0936 9.45512C81.1435 9.53979 81.1933 9.6257 81.2483 9.70414C81.2776 9.75427 81.323 9.79362 81.3775 9.81613C81.4321 9.83863 81.4927 9.84303 81.5501 9.82865C81.6073 9.81314 81.6582 9.78098 81.6962 9.73648C81.7341 9.69197 81.7572 9.63725 81.7623 9.57963C81.7764 9.44979 81.7815 9.31918 81.7776 9.18867C81.7776 8.38931 81.7776 7.58996 81.7776 6.7906C81.7776 6.22781 81.9055 6.11451 82.4923 6.10953C82.8759 6.10953 83.2595 6.10953 83.643 6.10953C84.3015 6.10953 84.4102 6.21412 84.4102 6.8404C84.4196 8.11871 84.4234 9.39411 84.4217 10.6666Z" fill="#3067B0"/>
<path d="M56.2198 21.391C56.2198 20.5929 56.2198 19.7936 56.2198 18.9954C56.2198 18.4264 56.418 18.2422 57.0061 18.2347C57.3078 18.2347 57.6109 18.2521 57.91 18.2347C58.6452 18.1799 58.8856 18.4837 58.8715 19.1909C58.8434 20.5917 58.8626 21.9936 58.8638 23.3944C58.8591 23.5572 58.8634 23.7201 58.8766 23.8825C58.9559 24.6034 59.5159 25.1699 60.1846 25.2222C60.3764 25.2413 60.5703 25.2234 60.755 25.1694C60.9398 25.1155 61.1118 25.0265 61.2612 24.9078C61.4106 24.789 61.5345 24.6427 61.6257 24.4772C61.717 24.3117 61.7738 24.1304 61.793 23.9435C61.809 23.7646 61.8141 23.585 61.8083 23.4056C61.8083 22.0053 61.8083 20.6041 61.8083 19.2021C61.8028 19.0717 61.8062 18.9411 61.8186 18.8112C61.8684 18.4563 62.0807 18.2558 62.4578 18.2434C62.9258 18.2285 63.3946 18.2285 63.8643 18.2434C64.0166 18.2439 64.1633 18.2995 64.276 18.3993C64.3886 18.4991 64.4592 18.6361 64.4741 18.7838C64.4848 18.8809 64.4878 18.9788 64.4831 19.0764C64.4831 20.5593 64.4997 22.0422 64.4831 23.5251C64.4665 24.6544 64.1148 25.6692 63.2608 26.481C62.7261 26.9826 62.0466 27.3128 61.3135 27.4273C60.6692 27.5449 60.0081 27.5449 59.3637 27.4273C57.5495 27.0874 56.3042 25.6455 56.2364 23.7928C56.207 22.996 56.2364 22.1966 56.2364 21.3985L56.2198 21.391Z" fill="#3067B0"/>
<path d="M58.496 10.6434C58.496 9.40578 58.496 8.1669 58.496 6.92927C58.496 6.27683 58.6596 6.11746 59.3245 6.11746C61.0497 6.11746 62.7745 6.12037 64.4988 6.12618C65.1266 6.12618 65.2889 6.29676 65.2941 6.91806C65.2941 7.17954 65.3017 7.43976 65.2941 7.69999C65.2774 8.19056 65.0882 8.37732 64.5883 8.38106C63.7342 8.38106 62.8802 8.38106 62.0312 8.38106C61.881 8.36755 61.7296 8.37977 61.5837 8.41717C61.4712 8.4511 61.3723 8.51819 61.3006 8.60918C61.229 8.70017 61.188 8.81057 61.1835 8.92517C61.1772 9.0487 61.2163 9.17038 61.2939 9.2683C61.3715 9.36623 61.4824 9.43397 61.6067 9.45932C61.7703 9.49199 61.9371 9.5066 62.1041 9.5029C62.4391 9.51037 62.774 9.49418 63.109 9.51037C63.444 9.52655 63.6665 9.71706 63.6869 10.0607C63.7074 10.4044 63.7035 10.7779 63.6869 11.1365C63.6716 11.5586 63.4632 11.759 63.031 11.7727C62.6475 11.7852 62.2639 11.7727 61.8803 11.7727C61.746 11.7609 61.6108 11.7845 61.4891 11.8412C61.3905 11.8878 61.3087 11.9623 61.2544 12.0549C61.2001 12.1476 61.1759 12.2541 61.1848 12.3604C61.1943 12.4751 61.2405 12.5839 61.3169 12.6717C61.3933 12.7595 61.496 12.8217 61.6105 12.8497C61.7422 12.8724 61.876 12.8808 62.0095 12.8746C62.8469 12.8746 63.6844 12.8746 64.5218 12.8746C65.1176 12.8746 65.2889 13.0514 65.3005 13.6341C65.3005 13.9118 65.3081 14.1882 65.3005 14.4659C65.2851 14.9353 65.0997 15.1245 64.6305 15.1258C62.8209 15.1308 61.0122 15.1308 59.2043 15.1258C58.6929 15.1258 58.5088 14.9477 58.5062 14.446C58.4909 13.1872 58.496 11.9172 58.496 10.6434Z" fill="#3067B0"/>
<path d="M39.0601 22.7551C39.0601 21.4988 39.0601 20.2425 39.0601 18.9874C39.0601 18.3972 39.2276 18.2403 39.8413 18.2403C41.5835 18.2403 43.3271 18.2428 45.0719 18.2478C45.683 18.2478 45.8518 18.4122 45.862 18.9949C45.862 19.2887 45.8748 19.5825 45.862 19.8751C45.8364 20.301 45.6331 20.4977 45.192 20.4977C44.3533 20.5089 43.5159 20.4977 42.6771 20.4977C42.5433 20.4921 42.4092 20.4946 42.2757 20.5052C42.1315 20.5123 41.9959 20.5736 41.8973 20.6763C41.7988 20.779 41.7451 20.915 41.7476 21.0555C41.7457 21.1254 41.7583 21.1949 41.7847 21.2599C41.811 21.3249 41.8506 21.384 41.9009 21.4338C41.9513 21.4835 42.0115 21.5229 42.0779 21.5494C42.1442 21.576 42.2154 21.5893 42.2872 21.5884C42.6707 21.6108 43.0543 21.5884 43.4443 21.5984C44.0605 21.6046 44.2485 21.7851 44.2574 22.3903C44.2574 22.6829 44.2702 22.9779 44.2574 23.2705C44.2331 23.6702 44.0324 23.8545 43.6181 23.8682C43.2832 23.8794 42.9482 23.8682 42.6132 23.8682C42.4624 23.8657 42.3118 23.8803 42.1644 23.9118C42.0469 23.9348 41.9415 23.9973 41.8665 24.0883C41.7915 24.1793 41.7517 24.2931 41.754 24.4098C41.7472 24.5249 41.7788 24.6391 41.844 24.7353C41.9092 24.8316 42.0045 24.9047 42.1158 24.944C42.2588 24.9912 42.4104 25.0086 42.5608 24.995C43.3995 24.995 44.2382 24.995 45.0757 24.995C45.7022 24.995 45.8671 25.1631 45.8735 25.7869C45.8735 26.0633 45.885 26.341 45.8735 26.6186C45.8505 27.0469 45.6498 27.2412 45.2099 27.2486C43.3825 27.2553 41.5554 27.2553 39.7288 27.2486C39.2698 27.2486 39.0793 27.0395 39.0767 26.5663C39.0563 25.2988 39.0601 24.0263 39.0601 22.7551Z" fill="#3067B0"/>
<path d="M92.0866 27.505C89.4758 27.5784 87.4966 25.5053 87.3559 23.0973C87.2281 21.0528 88.0604 19.3894 89.977 18.4568C91.8053 17.5678 93.6272 17.8218 95.297 18.9548C95.9453 19.3956 95.9453 19.8924 95.3661 20.4079C95.2305 20.5324 95.095 20.6507 94.9531 20.7652C94.5401 21.1002 94.186 21.1076 93.7871 20.7652C93.5518 20.5552 93.2694 20.4017 92.9624 20.317C91.7823 20.0082 90.8157 20.4627 90.3605 21.5708C90.1831 21.9784 90.0999 22.419 90.1169 22.8615C90.1339 23.3039 90.2507 23.7372 90.459 24.1307C90.6059 24.41 90.8158 24.6534 91.0729 24.8425C91.3301 25.0316 91.6278 25.1617 91.9439 25.2229C92.26 25.2841 92.5861 25.2749 92.898 25.1959C93.2099 25.117 93.4994 24.9703 93.7449 24.767C93.8088 24.7134 93.8638 24.6512 93.9277 24.5989C94.2294 24.3499 94.5197 24.3163 94.8419 24.5267C95.1334 24.7172 95.4185 24.9201 95.6908 25.1355C96.0821 25.4431 96.1038 25.7842 95.7458 26.1378C94.948 26.926 93.9558 27.3244 92.8422 27.4564C92.5891 27.4875 92.3372 27.49 92.0866 27.505Z" fill="#3067B0"/>
<path d="M75.2474 22.7075C75.2474 21.4848 75.2474 20.2634 75.2474 19.0419C75.2474 18.4194 75.4315 18.2413 76.0887 18.2364C76.3904 18.2364 76.6922 18.2364 76.9926 18.2364C77.7214 18.2364 77.8876 18.3945 77.8876 19.0893C77.8876 20.6855 77.9081 22.2817 77.8876 23.8779C77.8723 24.7719 78.1011 25.0433 79.0601 25.006C79.8796 24.9749 80.7004 24.996 81.5213 25.006C82.1299 25.006 82.328 25.2052 82.3408 25.7991C82.3408 25.9946 82.3408 26.1901 82.3408 26.3856C82.3332 27.0691 82.1414 27.2571 81.4458 27.2571C80.2397 27.2571 79.0341 27.2571 77.8288 27.2571C77.2432 27.2571 76.6577 27.2571 76.0708 27.2571C75.4584 27.2571 75.2525 27.0567 75.2513 26.4702C75.2436 25.2114 75.2474 23.9663 75.2474 22.7075Z" fill="#3067B0"/>
<path d="M19.1231 6.24779C18.7547 6.25359 18.3887 6.1877 18.0468 6.05397C17.7048 5.92025 17.3937 5.72138 17.1318 5.46903C16.8698 5.21668 16.6622 4.91593 16.5211 4.58441C16.38 4.2529 16.3084 3.89729 16.3103 3.53844C16.3045 3.17977 16.3724 2.82358 16.51 2.49083C16.6476 2.15808 16.8522 1.85548 17.1116 1.60085C17.3711 1.34621 17.6802 1.14466 18.0208 1.00806C18.3614 0.871467 18.7266 0.802576 19.095 0.805442C19.4668 0.796091 19.8367 0.859099 20.1832 0.990774C20.5297 1.12245 20.8457 1.32014 21.1127 1.57227C21.3797 1.8244 21.5924 2.12589 21.7382 2.45907C21.8841 2.79226 21.9601 3.15044 21.962 3.51263C21.9639 3.87482 21.8915 4.23373 21.7491 4.56833C21.6067 4.90293 21.3972 5.20649 21.1328 5.46122C20.8684 5.71595 20.5545 5.91673 20.2094 6.0518C19.8643 6.18686 19.495 6.25349 19.1231 6.24779Z" fill="#3067B0"/>
<path d="M86.2503 22.7523C86.2503 24.0086 86.2503 25.2637 86.2503 26.52C86.2503 27.1002 86.0968 27.2496 85.5151 27.2571C85.1315 27.2571 84.748 27.2571 84.3644 27.2571C83.7903 27.2496 83.6152 27.084 83.6139 26.5249C83.6139 24.5851 83.6139 22.6448 83.6139 20.7041C83.6139 20.1164 83.6139 19.53 83.6139 18.9423C83.6139 18.4069 83.7878 18.2438 84.3363 18.2375C84.7556 18.2313 85.175 18.2301 85.5931 18.2375C86.0943 18.2463 86.2528 18.3957 86.2554 18.8875C86.2541 20.1762 86.2503 21.4648 86.2503 22.7523Z" fill="#3067B0"/>
<path d="M73.3891 22.4497C73.1538 22.2007 73.0656 21.9691 73.1755 21.6565C73.2618 21.357 73.2849 21.0436 73.2433 20.7352C73.1461 19.4029 72.0184 18.2674 70.7258 18.245C69.2849 18.2188 67.8427 18.2338 66.4018 18.245C65.944 18.245 65.7292 18.4629 65.7037 18.9011C65.7037 19.0144 65.7037 19.129 65.7037 19.2435V22.7585C65.7037 23.9812 65.7037 25.2038 65.7037 26.4278C65.7037 27.0503 65.9057 27.2545 66.536 27.2558C68.1623 27.2558 69.7874 27.2558 71.4137 27.2558C72.0234 27.2595 72.6149 27.0531 73.0835 26.6731C73.3967 26.4207 73.654 26.1091 73.8399 25.7571C74.0258 25.4051 74.1364 25.02 74.165 24.6251C74.1935 24.2302 74.1395 23.8338 74.0061 23.4599C73.8727 23.086 73.6628 22.7423 73.3891 22.4497ZM68.3643 20.9643C68.3807 20.8428 68.4394 20.7305 68.5306 20.6462C68.6219 20.5618 68.7401 20.5106 68.8655 20.5011C69.0803 20.4812 69.2977 20.5011 69.515 20.5011C69.6979 20.5011 69.882 20.4886 70.0635 20.5011C70.1898 20.5014 70.3114 20.5481 70.4038 20.6319C70.4963 20.7157 70.5528 20.8304 70.5622 20.9531C70.5941 21.2432 70.4497 21.4847 70.1543 21.5308C69.7101 21.6004 69.2573 21.6004 68.8131 21.5308C68.6775 21.511 68.555 21.4411 68.4709 21.3356C68.3869 21.2301 68.3478 21.0971 68.3618 20.9643H68.3643ZM70.6657 24.9922C70.0993 25.0109 69.5317 25.0121 68.9653 24.9922C68.8043 24.9889 68.651 24.9244 68.5382 24.8125C68.4254 24.7006 68.3621 24.5501 68.3618 24.3933C68.3682 24.0795 68.6175 23.8467 68.9883 23.8243C69.2708 23.8068 69.5547 23.8243 69.8385 23.8243C70.1057 23.8243 70.3729 23.8143 70.6389 23.8243C71.0224 23.843 71.2424 24.0608 71.2462 24.397C71.2521 24.4742 71.2414 24.5518 71.2146 24.6247C71.1879 24.6976 71.1457 24.7642 71.0909 24.8203C71.0361 24.8764 70.9698 24.9206 70.8964 24.9502C70.8229 24.9799 70.7439 24.9941 70.6645 24.9922H70.6657Z" fill="#3067B0"/>
<path d="M36.7114 24.2365C37.0629 23.9315 37.3485 23.5614 37.5516 23.1477C37.7546 22.7341 37.871 22.2852 37.894 21.8272C38.0129 19.9596 36.5081 18.1616 34.5084 18.2289C33.4702 18.2637 32.4308 18.2289 31.3913 18.2289C31.0896 18.2289 30.7865 18.2189 30.4861 18.2289C30.091 18.2476 29.8737 18.4518 29.8302 18.834C29.8199 18.9641 29.8174 19.0946 29.8225 19.225V22.6988C29.8225 23.9539 29.8225 25.2102 29.8225 26.4665C29.8225 27.0193 30.0552 27.2372 30.6152 27.2447C30.9988 27.2509 31.3824 27.2546 31.7659 27.2447C32.2288 27.231 32.4666 26.9957 32.4857 26.5412C32.4973 26.2312 32.4857 25.9186 32.4857 25.6111C32.4947 25.2376 32.6456 25.0035 32.9204 24.9126C33.1953 24.8217 33.4114 24.9026 33.6697 25.2513C34.0532 25.768 34.4368 26.2847 34.805 26.8064C34.8985 26.9529 35.0312 27.0717 35.189 27.15C35.3467 27.2284 35.5234 27.2633 35.7 27.2509C36.2191 27.236 36.7395 27.2447 37.2586 27.2509C37.4849 27.2509 37.7035 27.2434 37.8122 27.0019C37.9209 26.7603 37.7866 26.601 37.6473 26.4279C37.3046 26.0058 36.9696 25.5775 36.6334 25.1504C36.2639 24.6785 36.2626 24.6374 36.7114 24.2365ZM34.1658 22.7523C33.8167 22.7835 33.4656 22.786 33.1161 22.7598C32.9547 22.756 32.8011 22.692 32.6869 22.581C32.5726 22.47 32.5066 22.3205 32.5024 22.1634C32.4857 21.9866 32.5024 21.8061 32.5024 21.628C32.5024 21.4649 32.4921 21.3018 32.5024 21.1412C32.533 20.739 32.7581 20.5186 33.171 20.4962C33.4878 20.475 33.8056 20.475 34.1223 20.4962C34.681 20.541 35.0965 21.0204 35.1068 21.6031C35.117 22.1858 34.7168 22.6951 34.1658 22.7523Z" fill="#3067B0"/>
<path d="M57.3394 9.63086C56.8165 7.38967 54.9434 6.04123 52.8913 6.1122C51.9222 6.14457 50.9492 6.1122 49.9775 6.11842C49.2564 6.11842 49.0825 6.28651 49.0825 6.97381C49.0825 8.1965 49.0825 9.41878 49.0825 10.6406C49.0825 11.8857 49.0825 13.1171 49.0825 14.356C49.0825 14.9562 49.2743 15.1367 49.8995 15.1379C50.9876 15.1379 52.0731 15.1379 53.1649 15.1379C53.9236 15.1369 54.666 14.9239 55.304 14.5241C56.9264 13.5305 57.7805 11.5135 57.3394 9.63086ZM53.9321 12.3315C53.7414 12.5164 53.5134 12.6609 53.2626 12.7558C53.0117 12.8507 52.7434 12.8941 52.4745 12.8831C51.9823 12.8706 51.7406 12.6465 51.7278 12.1572C51.7151 11.6678 51.7278 11.1461 51.7278 10.6419C51.7278 10.1376 51.7189 9.63086 51.7278 9.12659C51.7368 8.62233 51.9938 8.37953 52.5103 8.37953C52.8303 8.37335 53.1471 8.44191 53.4343 8.57947C53.7215 8.71703 53.9706 8.91958 54.1609 9.17017C54.5268 9.63302 54.7056 10.2105 54.6634 10.7932C54.6213 11.3759 54.361 11.9232 53.9321 12.3315Z" fill="#3067B0"/>
<path d="M75.2386 14.5894C75.2128 14.4618 75.1751 14.3368 75.1261 14.2158C74.6146 12.7217 74.1007 11.2243 73.5841 9.72351C73.2492 8.74984 72.9218 7.77493 72.5817 6.8025C72.4027 6.28703 72.1701 6.1289 71.6216 6.12143C71.3045 6.12143 70.9823 6.12143 70.6678 6.12143C70.3826 6.12143 70.0975 6.12143 69.8137 6.12143C69.1603 6.12143 68.9417 6.27209 68.741 6.85978C68.0676 8.83783 67.3942 10.8159 66.7209 12.7939C66.5368 13.3356 66.3373 13.8734 66.1736 14.4126C66.0317 14.8658 66.2133 15.121 66.6851 15.1322C67.2042 15.1447 67.7232 15.1322 68.2423 15.1322C68.3691 15.1368 68.494 15.1014 68.5985 15.0315C68.7031 14.9615 68.7817 14.8606 68.8228 14.7438C68.8732 14.6219 68.9159 14.4972 68.9507 14.3702C69.0529 14.0229 69.2933 13.8722 69.6577 13.8722C70.3277 13.8722 70.9976 13.8722 71.6676 13.8722C72.1138 13.8722 72.2621 13.9967 72.404 14.3951C72.4424 14.5022 72.468 14.6155 72.5127 14.7201C72.5493 14.8301 72.6189 14.9269 72.7126 14.9979C72.8063 15.0689 72.9197 15.111 73.0382 15.1185C73.6238 15.1372 74.2106 15.1397 74.7962 15.1185C74.8623 15.1157 74.927 15.0992 74.9862 15.0703C75.0453 15.0413 75.0974 15.0005 75.1392 14.9505C75.181 14.9006 75.2114 14.8426 75.2286 14.7803C75.2457 14.7181 75.2491 14.653 75.2386 14.5894ZM71.0577 11.6011C70.9245 11.6105 70.7907 11.6105 70.6575 11.6011C70.5574 11.6061 70.4572 11.6061 70.3571 11.6011C70.0195 11.5675 69.8674 11.392 69.9505 11.0757C70.1026 10.4942 70.2816 9.91899 70.453 9.34251C70.4875 9.23045 70.5488 9.12586 70.6946 9.13831C70.811 9.14703 70.8634 9.24041 70.8915 9.3338C71.0692 9.92647 71.2533 10.5166 71.4106 11.113C71.4796 11.3907 71.3339 11.5688 71.0577 11.6074V11.6011Z" fill="#3067B0"/>
<path d="M38.5472 14.6272C38.5276 14.4823 38.4903 14.3401 38.4359 14.2039C38.0251 12.9978 37.613 11.7942 37.1996 10.5931C36.7785 9.35295 36.3549 8.1149 35.9287 6.87893C35.7203 6.27256 35.5144 6.12315 34.8752 6.11942C34.5901 6.11942 34.3049 6.11942 34.0211 6.11942H33.167C32.4574 6.11942 32.272 6.25762 32.0406 6.92002C31.3937 8.80427 30.7506 10.6894 30.1113 12.5753C29.9003 13.1978 29.6817 13.8092 29.4873 14.4317C29.3493 14.875 29.5436 15.1277 30.0179 15.1377C30.5191 15.1477 31.0229 15.1377 31.5241 15.1377C31.6676 15.1464 31.8097 15.1063 31.9263 15.0244C32.0429 14.9424 32.1267 14.8236 32.1634 14.6882C32.2081 14.5637 32.2516 14.4392 32.2912 14.3147C32.3227 14.1857 32.3995 14.0716 32.5083 13.992C32.6171 13.9124 32.7511 13.8724 32.887 13.8789C33.6235 13.8689 34.3603 13.8689 35.0976 13.8789C35.2422 13.8745 35.3836 13.9207 35.4962 14.0091C35.6088 14.0975 35.6851 14.2222 35.7113 14.3608C35.7442 14.4882 35.7869 14.6131 35.8392 14.7343C35.8775 14.8437 35.9484 14.9395 36.043 15.0093C36.1375 15.0792 36.2513 15.12 36.3698 15.1265C36.9554 15.1402 37.5422 15.1452 38.1278 15.1265C38.4065 15.1252 38.5715 14.9049 38.5472 14.6272ZM34.2896 11.6141C34.1899 11.6228 34.0889 11.6141 33.9891 11.6141C33.8725 11.6209 33.7555 11.6209 33.6388 11.6141C33.3345 11.5767 33.1849 11.3962 33.2616 11.1085C33.4151 10.5271 33.5941 9.95184 33.7667 9.37411C33.7986 9.26455 33.8447 9.15124 33.993 9.15249C34.1413 9.15373 34.1847 9.26455 34.218 9.37661C34.3842 9.93815 34.5619 10.4972 34.7102 11.0637C34.8023 11.4186 34.6604 11.5842 34.2896 11.6141Z" fill="#3067B0"/>
<path d="M55.1283 21.4164C54.9532 19.5064 53.369 18.1654 51.6456 18.2265C50.4079 18.27 49.1664 18.2327 47.9275 18.2352C47.2716 18.2352 47.0862 18.4145 47.0837 19.042C47.0837 20.2634 47.0837 21.4861 47.0837 22.7076C47.0837 23.9788 47.0837 25.2501 47.0837 26.5201C47.0837 26.9833 47.2908 27.231 47.7089 27.2497C48.1768 27.2709 48.6474 27.2696 49.1153 27.2497C49.4784 27.2323 49.6919 27.0007 49.7188 26.6533C49.7316 26.4915 49.7188 26.3271 49.7188 26.164C49.7188 25.4605 49.931 25.2513 50.6381 25.2401C50.973 25.2401 51.308 25.2401 51.643 25.2401C52.0621 25.2513 52.4796 25.1863 52.8742 25.0484C54.3267 24.5192 55.2766 23.0301 55.1283 21.4164ZM51.2275 22.9691C50.9609 22.9834 50.6937 22.9834 50.4271 22.9691C50.0116 22.9491 49.7763 22.7387 49.7341 22.3465C49.7226 22.1358 49.7226 21.9247 49.7341 21.714C49.7232 21.5195 49.7232 21.3245 49.7341 21.13C49.7763 20.7353 50.0128 20.5174 50.4233 20.4975C50.7065 20.4797 50.9906 20.4818 51.2735 20.5037C51.9128 20.5585 52.3513 21.0877 52.3411 21.7588C52.3309 22.4299 51.8706 22.9317 51.2275 22.9691Z" fill="#3067B0"/>
</svg>
